<svg width="100" height="100" xmlns="http://www.w3.org/2000/svg"><path fill-rule="evenodd" clip-rule="evenodd" d="M80.483 1.128c-7.284-3.056-15.806.31-19.037 7.519L53.89 25.51l-23.213-13.37c-9.533-5.49-21.935-2.346-27.7 7.024-9.373 15.233 4.845 33.601 22.368 28.896l20.962-5.628-13.475 30.07c-4.495 10.032.079 21.613 10.217 25.866 16.652 6.985 33.743-9.817 26.623-26.175l-9.838-22.605a14.534 14.534 0 01-.944-8.689c6.909 1.518 12.262 7.585 12.046 15.147l-.116 4.039c-.417 14.608 19.317 19.996 27.072 7.391 4.171-6.778 1.961-15.492-4.935-19.464L64.652 31.71a15.522 15.522 0 017.963-3.113l3.207-.312c14.892-1.448 18.322-21.427 4.661-27.157z" fill="currentColor"/></svg>